# xmcd CD database file
#
# Track frame offsets:
#	150
#	19370
#	31930
#	52688
#	67850
#	80670
#	92637
#	106159
#	119343
#	132396
#	145417
#	161434
#
# Disc length: 2344 seconds
#
# Revision: 1
# Processed by: cddbd v1.5.1PL0 Copyright (c) Steve Scherf et al.
# Submitted via: CDex 1.51
#
DISCID=9709260c
DTITLE=Alvin Lee - On The Road To Freedom
DYEAR=1973
DGENRE=Blues
TTITLE0=On The Road To Freedom
TTITLE1=The World Is Changing
TTITLE2=So Sad (No Love Of His Own)
TTITLE3=Fallen Angel
TTITLE4=Funny
TTITLE5=We Will Shine
TTITLE6=Carry My Load
TTITLE7=Lay Me Back
TTITLE8=Let ''Em Say What They Will
TTITLE9=I Can't Take It
TTITLE10=Riffin
TTITLE11=Rockin Til The Sun Goes Down
EXTD=YEAR: 1973
EXTT0=
EXTT1=
EXTT2=
EXTT3=
EXTT4=
EXTT5=
EXTT6=
EXTT7=
EXTT8=
EXTT9=
EXTT10=
EXTT11=
PLAYORDER=
